HIERARCHY
ROOT Hips
{
	OFFSET -0.179506 -22.333345 2.821913
	CHANNELS 6 Xposition Yposition Zposition Zrotation Yrotation Xrotation 
	JOINT LeftUpLeg
	{
		OFFSET 6.951974 -9.140623 -0.681533
		CHANNELS 3 Zrotation Yrotation Xrotation
		JOINT LeftLeg
		{
			OFFSET 3.427654 -37.519855 -0.449580
			CHANNELS 3 Zrotation Yrotation Xrotation
			JOINT LeftFoot
			{
				OFFSET -1.359570 -39.796059 -4.369333
				CHANNELS 3 Zrotation Yrotation Xrotation
				JOINT LeftToe
				{
					OFFSET 2.635814 -5.579078 11.928840
					CHANNELS 3 Zrotation Yrotation Xrotation
					End Site
					{
						OFFSET 0.000000 0.000000 0.000000
					}
				}
			}
		}
	}
	JOINT RightUpLeg
	{
		OFFSET -6.767048 -9.052170 -0.431982
		CHANNELS 3 Zrotation Yrotation Xrotation
		JOINT RightLeg
		{
			OFFSET -3.829005 -38.256897 -0.885003
			CHANNELS 3 Zrotation Yrotation Xrotation
			JOINT RightFoot
			{
				OFFSET 1.577377 -39.841461 -4.231180
				CHANNELS 3 Zrotation Yrotation Xrotation
				JOINT RightToe
				{
					OFFSET -2.537174 -4.814398 12.334795
					CHANNELS 3 Zrotation Yrotation Xrotation
					End Site
					{
						OFFSET 0.000000 0.000000 0.000000
					}
				}
			}
		}
	}
	JOINT Spine
	{
		OFFSET -0.253288 10.896323 -2.669631
		CHANNELS 3 Zrotation Yrotation Xrotation
		JOINT Spine1
		{
			OFFSET 0.548704 13.518043 0.109247
			CHANNELS 3 Zrotation Yrotation Xrotation
			JOINT Spine2
			{
				OFFSET 0.145701 5.292222 2.542457
				CHANNELS 3 Zrotation Yrotation Xrotation
				JOINT Neck
				{
					OFFSET -0.277840 21.387037 -4.285703
					CHANNELS 3 Zrotation Yrotation Xrotation
					JOINT Head
					{
						OFFSET 0.515184 6.496960 5.134897
						CHANNELS 3 Zrotation Yrotation Xrotation
						End Site
						{
							OFFSET 0.000000 0.000000 0.000000
						}
					}
				}
				JOINT LeftShoulder
				{
					OFFSET 7.884473 12.174932 -3.408961
					CHANNELS 3 Zrotation Yrotation Xrotation
					JOINT LeftArm
					{
						OFFSET 9.097692 3.046888 -0.886815
						CHANNELS 3 Zrotation Yrotation Xrotation
						JOINT LeftForeArm
						{
							OFFSET 25.961220 -1.277207 -2.745643
							CHANNELS 3 Zrotation Yrotation Xrotation
							JOINT LeftHand
							{
								OFFSET 24.923361 0.898606 -0.117091
								CHANNELS 3 Zrotation Yrotation Xrotation
								End Site
								{
									OFFSET 0.000000 0.000000 0.000000
								}
							}
						}
					}
				}
				JOINT RightShoulder
				{
					OFFSET -8.175920 11.883285 -3.861528
					CHANNELS 3 Zrotation Yrotation Xrotation
					JOINT RightArm
					{
						OFFSET -9.601238 3.255117 -0.914307
						CHANNELS 3 Zrotation Yrotation Xrotation
						JOINT RightForeArm
						{
							OFFSET -25.374195 -1.332924 -2.140099
							CHANNELS 3 Zrotation Yrotation Xrotation
							JOINT RightHand
							{
								OFFSET -25.529810 0.777228 -0.555919
								CHANNELS 3 Zrotation Yrotation Xrotation
								End Site
								{
									OFFSET 0.000000 0.000000 0.000000
								}
							}
						}
					}
				}
			}
		}
	}
}
MOTION
Frames: 18
Frame Time: 0.033333
32.320385 -36.397709 98.365280 -122.521736 3.169862 92.013222 5.493334 5.213715 44.532545 0.115698 -26.863383 7.954034 -3.146245 27.258713 5.033095 nan nan nan -6.650379 14.258049 -52.337678 8.544861 -5.842700 36.725899 7.505287 -17.362936 -9.526404 nan nan nan 4.198587 -26.508963 12.529243 11.002089 -13.170511 -8.098869 5.491230 -10.089701 6.997390 -27.412772 16.636641 -3.988698 9.155644 16.121965 -32.837332 12.893127 -35.098220 0.338815 -14.562096 10.088139 -2.899511 170.943253 -52.585240 -143.441697 -11.734237 -28.708789 -13.120413 -9.879136 6.934415 -5.675074 13.501638 -51.922748 3.904049 85.591055 35.940353 85.730145 1.742301 42.563739 3.460798 
29.201937 -33.833500 98.365891 -123.448455 2.372051 91.848275 4.424807 6.399549 44.476539 -2.210651 -25.963349 12.342798 -3.597709 26.852485 4.483839 nan nan nan -6.050568 14.041199 -50.375559 8.376780 -3.709552 32.142755 7.490131 -16.886759 -9.497857 nan nan nan 4.010894 -25.963884 12.199687 10.748975 -13.156742 -8.269909 5.533318 -10.202715 7.163571 -28.176930 16.043367 -4.344824 8.980686 16.663915 -32.192206 11.329895 -34.751731 0.985872 -14.852605 10.601963 -2.301500 171.977494 -53.309741 -144.738858 -12.077706 -27.386953 -13.019250 -7.703342 6.689217 -5.613638 11.222884 -51.314225 5.193101 86.895521 37.017199 87.358854 2.521658 42.144583 6.970450 
26.120607 -31.281191 98.329437 -124.424601 1.599310 91.630811 2.929224 7.259500 44.233277 -4.760082 -25.201559 17.123383 -3.526559 26.716399 3.104905 nan nan nan -5.264661 13.555518 -48.245754 7.995666 -2.056042 27.876209 7.395692 -16.602765 -9.113493 nan nan nan 3.689430 -25.244874 11.989487 10.506244 -13.183443 -8.429540 5.494793 -10.065215 7.381520 -28.576381 14.790906 -4.484397 8.918700 17.604592 -31.613044 9.413773 -34.593157 1.871668 -15.211579 10.944281 -0.869771 171.244099 -53.941121 -144.749024 -13.682861 -26.105214 -12.067824 -5.964413 6.572770 -6.650117 9.218273 -50.370169 6.340167 87.473330 36.956686 87.883325 6.352939 40.833026 11.972803 
23.066475 -28.710926 98.250175 -125.574342 0.854169 91.256595 1.488189 8.257895 43.744736 -7.172622 -23.830430 22.349088 -3.594733 25.602682 2.071273 nan nan nan -4.245951 12.935120 -46.053653 7.246825 -0.848050 24.283385 7.560850 -15.894693 -8.348455 nan nan nan 3.214479 -24.348952 12.145308 10.271470 -13.140580 -8.300623 5.554102 -9.869718 7.158975 -28.563803 14.220428 -4.350740 8.582870 18.056614 -31.199184 7.477666 -34.435690 2.833440 -15.984722 11.181146 0.986032 169.081595 -54.292951 -143.748806 -17.241488 -25.854275 -8.059566 -4.631436 6.678322 -7.718791 8.433364 -49.253676 6.982842 87.200186 36.688243 87.159124 11.346827 39.361883 16.066270 
20.065701 -26.106789 98.094063 -126.747985 0.146273 90.974410 0.074531 9.089356 42.838026 -9.516331 -21.787200 27.864785 -3.562060 24.057884 1.105156 nan nan nan -3.068576 12.130296 -44.122702 6.373764 -0.158538 21.728646 7.462288 -15.611873 -7.528282 nan nan nan 2.710393 -23.454928 12.533535 10.209904 -12.935831 -8.438349 5.672040 -9.592306 6.891758 -28.572463 13.961147 -4.336685 8.117346 18.132019 -30.659169 5.654566 -33.850672 4.071832 -17.108953 10.962802 2.560587 168.488455 -54.319851 -143.746033 -18.409258 -25.925029 -7.610213 -3.245960 6.441187 -7.090018 9.946257 -47.901625 6.181272 87.061528 38.278474 86.869918 11.447354 39.123847 16.511685 
17.135483 -23.507610 97.885078 -127.796316 -0.276800 90.790349 -0.897747 9.689964 41.401409 -12.088489 -19.550483 33.889126 -3.667938 22.698940 -0.025010 nan nan nan -1.623526 11.276029 -42.296599 5.599300 0.687424 19.701686 6.961798 -15.976836 -7.031209 nan nan nan 2.263897 -22.452785 13.278898 10.459218 -12.861373 -9.115863 6.099300 -9.520080 6.698208 -28.856290 12.850852 -4.283908 7.623338 19.246420 -30.047930 2.665240 -34.280862 4.776059 -17.540774 12.564873 3.681382 169.393470 -54.225771 -143.895261 -17.926065 -26.028188 -9.539836 -0.912744 7.238869 -9.483062 5.185354 -46.857660 9.038618 88.884052 37.562109 86.721274 11.966769 38.379147 17.801748 
14.256658 -20.872702 97.563797 -128.948616 -0.592176 90.592482 -1.755009 10.178211 39.682416 -14.367105 -16.679313 39.939908 -3.457871 21.078609 -0.782896 nan nan nan -0.237319 10.662272 -40.719058 4.761582 0.840920 18.624411 6.102426 -16.027780 -7.004212 nan nan nan 2.549857 -21.872072 13.325419 9.842655 -12.345344 -9.198751 5.972406 -9.108080 7.055704 -28.772009 13.196080 -4.418840 7.224248 18.380435 -30.408943 0.370253 -33.819472 6.029509 -18.271405 12.941923 3.024886 171.319630 -54.438835 -146.744498 -16.905948 -25.601548 -7.048437 1.255126 7.792143 -7.387805 9.708527 -46.729762 5.351596 88.240614 41.389702 87.674119 11.727605 38.594817 19.226567 
11.433566 -18.241751 97.142914 -130.207581 -0.840932 90.569480 -2.493206 10.662001 37.518475 -16.665018 -13.571628 46.096651 -3.030629 20.238569 -1.546701 nan nan nan 0.951620 10.237762 -39.541523 4.303948 1.081190 18.370871 5.229726 -16.332967 -7.081490 nan nan nan 2.725295 -21.139477 13.615962 9.419940 -11.714568 -10.046102 6.068279 -9.079285 7.667862 -28.837903 12.910224 -4.271313 6.681947 18.387376 -30.576046 -2.330934 -33.444768 6.604337 -18.953507 14.164715 1.776545 174.963774 -54.787502 -150.529964 -12.640194 -24.578372 -6.925135 3.429205 8.924506 -7.491960 10.525472 -46.370973 4.520143 89.068971 43.749052 88.488043 9.712166 38.803686 19.051910 
8.638774 -15.614345 96.663330 -131.330943 -1.139742 90.665698 -3.209667 10.840390 34.901682 -18.249187 -9.599582 52.279113 -2.219064 19.265128 -2.214548 nan nan nan 1.605616 9.958384 -38.630365 4.074586 0.563248 18.790235 4.390489 -16.217575 -6.986408 nan nan nan 2.903904 -20.280154 13.674672 8.982333 -11.080009 -10.577854 6.159614 -9.147389 7.961423 -28.881092 12.862330 -3.795797 6.172040 18.175494 -31.089959 -5.053621 -32.813737 7.252491 -19.739288 15.151379 1.161829 177.921872 -55.028987 -153.527647 -14.537214 -24.780436 -5.216525 5.493579 9.880184 -7.239912 12.071153 -45.427264 3.533232 89.960441 46.541242 89.560045 10.981848 38.586614 19.465723 
5.892396 -13.004658 96.149437 -132.530514 -1.453830 90.712123 -3.960056 10.811770 32.173557 -19.103084 -5.130836 58.223635 -1.289809 18.351709 -2.806030 nan nan nan 2.030811 9.979743 -37.723670 4.010506 -0.029532 19.680224 3.694366 -15.816800 -6.631908 nan nan nan 2.732760 -19.251898 13.934808 8.817230 -10.503783 -10.555979 6.355189 -8.984183 7.739450 -28.888226 12.786385 -3.348519 5.721602 17.852951 -31.717455 -7.883281 -31.853694 7.957980 -20.716119 15.952331 1.184057 -179.955118 -55.295193 -155.782867 -15.753489 -24.338075 -2.906903 8.377879 10.346009 -6.899762 12.637234 -43.590117 3.333086 92.029422 50.008778 91.351831 10.405151 38.926283 19.159516 
3.136304 -10.399011 95.572235 -134.055349 -1.571009 90.687341 -4.264891 11.019765 29.549482 -19.349153 -0.581948 63.999322 -0.405158 17.740938 -3.650484 nan nan nan 2.564278 10.333582 -36.634877 4.257521 -0.273493 20.743898 3.487774 -14.979227 -6.159598 nan nan nan 2.656304 -18.162944 14.358438 8.724678 -9.869406 -10.486165 6.455532 -8.409518 7.581521 -28.636781 12.617294 -3.195767 5.249425 17.463519 -31.946103 -10.535175 -30.815125 8.545746 -22.220948 16.716391 1.266684 -178.673645 -55.610143 -157.603870 -14.501922 -23.171864 -1.610972 11.363955 10.832441 -6.248308 13.367399 -41.549873 2.708881 94.729667 53.414916 93.387604 8.453411 39.016086 18.156230 
0.370411 -7.849399 94.958755 -135.450415 -1.551394 90.665682 -4.231256 11.062116 26.804613 -18.951120 3.937599 69.879889 0.180781 17.469835 -4.692401 nan nan nan 2.856830 10.887490 -35.207729 4.777170 -0.455838 21.450372 3.927824 -13.685266 -5.854981 nan nan nan 2.842802 -16.910672 14.774911 8.716477 -9.301290 -10.426208 6.429240 -7.838043 7.403099 -28.272245 12.353205 -3.146010 4.740417 16.959411 -32.047208 -12.882125 -29.917160 8.864626 -24.249151 17.568974 1.501519 -178.352786 -56.146813 -158.733495 -14.445410 -21.800938 -1.210883 13.952709 11.458827 -6.075845 14.023589 -39.475912 1.970243 98.367029 56.227652 96.183350 7.564415 38.814007 17.485600 
-2.396792 -5.305902 94.319069 -136.626540 -1.336383 90.775335 -3.849419 10.760186 23.770490 -17.846522 8.206127 75.999820 0.508668 17.162791 -5.877119 nan nan nan 3.101883 11.630203 -33.602820 5.413949 -0.540409 21.768978 4.925669 -12.324234 -5.504652 nan nan nan 3.353241 -15.687230 15.145837 8.833989 -8.806718 -10.485724 6.353569 -7.259131 7.059901 -28.017513 11.983977 -2.933575 4.187813 16.496870 -32.149082 -15.531408 -28.881728 9.282681 -26.016589 18.836713 1.684682 -177.785204 -56.945158 -159.632170 -14.818172 -20.028592 -1.217356 16.527508 12.260465 -6.222949 13.944944 -37.328558 1.592139 103.419195 58.405817 99.939767 6.880565 38.797767 17.036939 
-5.190624 -2.698194 93.623497 -137.904649 -0.958798 90.839690 -3.041960 10.564595 20.840311 -16.198369 11.814248 82.267792 0.732465 16.547266 -7.280726 nan nan nan 3.632543 12.398809 -31.775608 5.917140 -0.553309 22.050296 5.758286 -11.156388 -4.694699 nan nan nan 4.278626 -14.822596 15.769857 8.657142 -8.243316 -10.928496 6.050290 -6.487339 6.708311 -27.305320 12.383932 -2.663941 3.509306 15.751482 -32.161368 -18.089108 -27.454348 9.291620 -27.081609 20.348850 0.878584 -174.247392 -57.615909 -163.153853 -14.410759 -19.043222 -1.442521 19.047364 13.571783 -6.070678 14.468530 -34.946558 1.082520 109.103240 60.673605 105.696296 4.883542 39.232687 14.870938 
-7.945847 -0.082931 92.891655 -139.221339 -0.526349 90.810471 -1.873985 10.286484 17.940887 -14.285441 14.913550 88.688737 1.218271 15.470181 -8.628593 nan nan nan 4.442586 12.408178 -30.373476 6.202694 -1.560158 23.388856 5.731773 -9.991654 -1.939668 nan nan nan 5.253437 -14.137825 16.493357 8.385162 -7.669818 -11.432910 5.490903 -5.543874 6.540688 -26.126074 13.547730 -2.348602 2.745648 14.337708 -32.229357 -20.051260 -25.850362 9.028520 -28.186204 22.156442 0.062527 -170.739909 -58.047235 -166.549346 -14.929516 -19.154296 -1.693475 21.570994 15.168895 -5.728837 15.850336 -32.879703 0.467232 116.188840 63.220783 111.874779 4.133759 39.202950 13.495777 
-10.687634 2.486318 92.060066 -140.334343 -0.192949 90.558846 -0.671950 9.783148 15.014808 -12.794693 17.439164 95.122535 2.144685 14.316505 -9.726233 nan nan nan 5.319059 12.126363 -28.882048 6.695124 -2.219203 24.895051 4.448717 -9.618804 0.858400 nan nan nan 5.498849 -12.689321 17.225217 8.434726 -6.672142 -11.256190 5.450052 -5.225363 6.258784 -24.923920 13.742598 -2.357063 1.760739 12.863568 -31.688683 -20.869396 -24.854338 8.782828 -31.065460 23.585863 -1.937069 -167.479033 -58.344479 -170.047099 -17.366111 -17.903986 -2.125815 22.849963 16.316567 -6.282193 17.414009 -29.974439 -0.620415 123.457846 64.635416 119.419883 6.523164 37.394955 13.672549 
-13.324150 5.071147 91.221550 -141.466226 0.178049 90.483211 0.541134 9.418654 11.393062 -12.139053 19.370255 101.513768 3.215616 13.629183 -10.459910 nan nan nan 6.446427 12.002016 -27.930312 8.730784 -1.488426 27.059833 -7.422090 -9.171734 1.409854 nan nan nan 5.924806 -11.507165 18.034539 8.084795 -5.540453 -11.807152 5.354853 -4.737565 6.314014 -23.341087 13.827158 -1.769313 0.449187 11.364091 -31.414737 -21.646895 -23.563595 8.088512 -32.691119 25.573879 -5.720632 -159.581402 -57.470459 -177.297253 -16.593691 -16.434991 -5.155388 23.812574 17.484240 -7.392770 19.669510 -26.560942 -1.446222 130.223213 65.603546 126.124920 6.544509 36.441909 10.813962 
-15.759089 7.561713 90.329918 -143.100472 -0.283194 90.513096 0.649711 9.282006 7.110016 -11.333403 21.181041 107.724195 4.313114 11.707977 -11.295800 nan nan nan 7.635614 12.486003 -27.878497 8.844666 -0.191788 32.933615 -8.843591 -11.068234 -4.296991 nan nan nan 5.242330 -10.089651 19.901184 7.069543 -4.132880 -14.027031 5.686131 -4.440298 7.141510 -22.145656 14.117343 -2.016513 0.049861 10.229383 -30.705434 -20.864395 -21.416820 5.782867 -34.566423 27.807727 -8.408663 -151.357768 -55.852022 175.411218 -14.569283 -15.638087 -7.191961 24.721544 18.544245 -8.684591 22.192130 -22.313729 -1.538123 136.988031 66.618244 134.029939 2.477646 37.399327 7.129313 
